#N canvas 832 586 163 177 12;
#N canvas 735 22 172 218 arduino 0;
#X msg 72 59 close;
#X msg 16 59 open 1;
#X obj 16 84 comport 1 9600;
#X obj 16 109 == 1;
#X floatatom 16 134 5 0 0 0 - - -, f 5;
#X obj 16 158 spigot;
#X obj 72 34 closebang;
#X obj 16 183 outlet;
#X obj 16 10 loadbang;
#X connect 0 0 2 0;
#X connect 1 0 2 0;
#X connect 2 0 3 0;
#X connect 3 0 4 0;
#X connect 4 0 5 0;
#X connect 4 0 5 1;
#X connect 5 0 7 0;
#X connect 6 0 0 0;
#X connect 8 0 1 0;
#X restore 29 29 pd arduino;
#N canvas 732 137 150 156 tempo 0;
#X obj 10 32 tgl 15 0 empty empty empty 17 7 0 10 -262144 -1 -1 0 1
;
#X obj 21 86 bng 15 250 50 0 empty empty empty 17 7 0 10 -262144 -1
-1;
#X obj 21 59 spigot 0;
#X obj 30 31 bng 15 250 50 0 empty empty empty 17 7 0 10 -262144 -1
-1;
#X obj 10 106 metro 40;
#X obj 47 83 delay 10;
#X obj 10 7 inlet;
#X obj 10 131 outlet;
#X connect 0 0 2 1;
#X connect 0 0 3 0;
#X connect 0 0 4 0;
#X connect 1 0 5 0;
#X connect 2 0 1 0;
#X connect 3 0 2 0;
#X connect 3 0 7 0;
#X connect 4 0 7 0;
#X connect 5 0 0 0;
#X connect 6 0 0 0;
#X restore 29 60 pd tempo;
#N canvas 758 33 450 218 dinoTrigger 0;
#X obj 66 110 bng 15 250 50 0 empty empty empty 17 7 0 10 -262144 -1
-1;
#X obj 86 162 noteout;
#X obj 86 137 makenote 100 200;
#X msg 86 111 60;
#X msg 206 162 2, f 1;
#X floatatom 86 60 5 0 0 0 - - -, f 5;
#X obj 86 86 spigot;
#X floatatom 15 35 5 0 0 0 - - -, f 5;
#X obj 15 59 == 48;
#X obj 15 137 counter;
#X floatatom 15 162 5 0 0 0 - - -, f 5;
#X floatatom 15 84 5 0 0 0 - - -, f 5;
#X obj 15 110 spigot;
#X obj 86 35 == 19;
#X obj 15 10 inlet;
#X obj 206 116 loadbang;
#X text 224 162 Needs different midi Channel;
#X obj 66 10 inlet;
#X connect 0 0 9 3;
#X connect 2 0 1 0;
#X connect 2 1 1 1;
#X connect 3 0 2 0;
#X connect 4 0 1 2;
#X connect 5 0 6 0;
#X connect 5 0 6 1;
#X connect 6 0 3 0;
#X connect 7 0 8 0;
#X connect 8 0 11 0;
#X connect 9 0 10 0;
#X connect 9 0 13 0;
#X connect 11 0 12 0;
#X connect 11 0 12 1;
#X connect 12 0 9 0;
#X connect 13 0 5 0;
#X connect 13 0 6 0;
#X connect 14 0 7 0;
#X connect 15 0 4 0;
#X connect 17 0 0 0;
#X restore 29 124 pd dinoTrigger;
#N canvas 1039 628 371 403 midiPlayer 0;
#X msg 81 -34 bang;
#X obj 56 -63 bng 15 250 50 0 empty empty empty 0 -6 0 10 -262144 -1
-1;
#X text 75 -64 loop;
#X text 119 -34 play;
#X obj 38 74 seq;
#X msg 106 0 stop;
#X obj 38 107 midiparse;
#X msg 38 -96 read assets/POP.mid;
#X obj 38 -144 t b b b b;
#X msg 160 12 tick;
#X msg 132 38 start -1;
#X obj 160 -8 bng 15 250 50 0 empty empty empty 17 7 0 10 -262144 -1
-1;
#X obj 38 163 noteout;
#X obj 38 139 makenote 100 200;
#X obj 58 -119 delay 10;
#X obj 160 -33 inlet;
#X obj 17 188 outlet;
#X obj 114 -64 outlet;
#X obj 38 -169 loadbang;
#X text 161 -64 reset dinoTrigger counter;
#X text 64 188 send note information to dinoTrigger;
#N canvas 331 740 339 207 OSCreceive 0;
#X obj 58 -16 import mrpeach;
#X obj 58 -42 bng 15 250 50 0 empty empty empty 17 7 0 10 -262144 -1
-1;
#X obj 58 61 unpackOSC;
#X msg 16 9 status;
#X msg 93 9 port 8001;
#X obj 208 87 print;
#X obj 58 35 udpreceive 8001;
#X obj 173 113 routeOSC /mute;
#X obj 58 139 outlet;
#X obj 58 87 routeOSC /shapesWall;
#X obj 162 139 outlet;
#X obj 58 113 routeOSC /tiger;
#X connect 1 0 0 0;
#X connect 2 0 5 0;
#X connect 2 0 9 0;
#X connect 3 0 6 0;
#X connect 4 0 6 0;
#X connect 6 0 2 0;
#X connect 7 0 10 0;
#X connect 9 0 7 0;
#X connect 9 0 11 0;
#X connect 11 0 8 0;
#X restore 187 -146 pd OSCreceive;
#X msg 187 -96 read assets/tiger.mid;
#X obj 197 -121 delay 60000;
#X obj 173 -120 bng 15 250 50 0 empty empty empty 17 7 0 10 -262144
-1 -1;
#N canvas 495 22 211 208 timer 0;
#X obj 78 18 inlet;
#X obj 78 63 metro 100;
#X obj 78 88 counter;
#X floatatom 22 131 5 0 0 0 - - -, f 5;
#X obj 78 43 bng 15 250 50 0 empty empty empty 17 7 0 10 -262144 -1
-1;
#X obj 78 113 == 100;
#X msg 148 69 100;
#X obj 78 189 outlet;
#X obj 120 18 inlet;
#X floatatom 78 138 5 0 0 0 - - -, f 5;
#X obj 78 164 spigot;
#X connect 0 0 4 0;
#X connect 0 0 6 0;
#X connect 1 0 2 0;
#X connect 2 0 3 0;
#X connect 2 0 5 0;
#X connect 4 0 1 0;
#X connect 5 0 9 0;
#X connect 6 0 2 4;
#X connect 8 0 2 3;
#X connect 9 0 10 0;
#X connect 9 0 10 1;
#X connect 10 0 7 0;
#X restore 110 -144 pd timer;
#X obj 242 -11 bng 15 250 50 0 empty empty empty 17 7 0 10 -262144
-1 -1;
#X obj 242 13 metro 20;
#X msg 262 -15 stop;
#X connect 0 0 4 0;
#X connect 1 0 10 0;
#X connect 1 0 17 0;
#X connect 4 0 6 0;
#X connect 4 1 1 0;
#X connect 5 0 4 0;
#X connect 5 0 1 0;
#X connect 6 0 13 0;
#X connect 7 0 4 0;
#X connect 8 0 7 0;
#X connect 8 1 14 0;
#X connect 8 2 25 0;
#X connect 9 0 4 0;
#X connect 10 0 4 0;
#X connect 11 0 9 0;
#X connect 11 0 25 1;
#X connect 13 0 16 0;
#X connect 13 0 12 0;
#X connect 13 1 12 1;
#X connect 14 0 10 0;
#X connect 15 0 11 0;
#X connect 18 0 8 0;
#X connect 21 0 22 0;
#X connect 21 0 23 0;
#X connect 22 0 4 0;
#X connect 22 0 24 0;
#X connect 23 0 7 0;
#X connect 24 0 23 0;
#X connect 25 0 10 0;
#X connect 26 0 27 0;
#X connect 27 0 11 0;
#X connect 28 0 27 0;
#X restore 29 92 pd midiPlayer, f 14;
#X connect 0 0 1 0;
#X connect 1 0 3 0;
#X connect 3 0 2 0;
#X connect 3 1 2 1;
